<svg width="31" height="31" viewBox="0 0 31 31" fill="none" xmlns="http://www.w3.org/2000/svg">
<path fill-rule="evenodd" clip-rule="evenodd" d="M15.0496 2.50824C15.7422 2.50824 16.3037 3.06973 16.3037 3.76237V6.27063C16.3037 6.96327 15.7422 7.52476 15.0496 7.52476C14.3569 7.52476 13.7954 6.96327 13.7954 6.27063V3.76237C13.7954 3.06973 14.3569 2.50824 15.0496 2.50824ZM23.9176 6.1815C24.4074 6.67127 24.4074 7.46534 23.9176 7.95511L22.144 9.72872C21.6542 10.2185 20.8601 10.2185 20.3704 9.72872C19.8806 9.23895 19.8806 8.44488 20.3704 7.95511L22.144 6.1815C22.6338 5.69173 23.4278 5.69173 23.9176 6.1815ZM6.18152 6.1815C6.67129 5.69173 7.46536 5.69173 7.95512 6.1815L9.72873 7.95511C10.2185 8.44488 10.2185 9.23895 9.72873 9.72872C9.23897 10.2185 8.44489 10.2185 7.95512 9.72872L6.18152 7.95511C5.69175 7.46534 5.69175 6.67127 6.18152 6.1815ZM15.0496 11.9142C13.318 11.9142 11.9142 13.3179 11.9142 15.0495C11.9142 16.7811 13.318 18.1849 15.0496 18.1849C16.7811 18.1849 18.1849 16.7811 18.1849 15.0495C18.1849 13.3179 16.7811 11.9142 15.0496 11.9142ZM9.40597 15.0495C9.40597 11.9327 11.9327 9.40596 15.0496 9.40596C18.1664 9.40596 20.6931 11.9327 20.6931 15.0495C20.6931 18.1664 18.1664 20.6931 15.0496 20.6931C11.9327 20.6931 9.40597 18.1664 9.40597 15.0495ZM2.50826 15.0495C2.50826 14.3569 3.06975 13.7954 3.76239 13.7954H6.27065C6.96328 13.7954 7.52478 14.3569 7.52478 15.0495C7.52478 15.7422 6.96328 16.3037 6.27065 16.3037H3.76239C3.06975 16.3037 2.50826 15.7422 2.50826 15.0495ZM22.5743 15.0495C22.5743 14.3569 23.1358 13.7954 23.8285 13.7954H26.3367C27.0294 13.7954 27.5909 14.3569 27.5909 15.0495C27.5909 15.7422 27.0294 16.3037 26.3367 16.3037H23.8285C23.1358 16.3037 22.5743 15.7422 22.5743 15.0495ZM9.72873 20.3704C10.2185 20.8601 10.2185 21.6542 9.72873 22.144L7.95513 23.9176C7.46536 24.4074 6.67129 24.4074 6.18152 23.9176C5.69175 23.4278 5.69175 22.6337 6.18152 22.144L7.95513 20.3704C8.44489 19.8806 9.23897 19.8806 9.72873 20.3704ZM20.3704 20.3704C20.8601 19.8806 21.6542 19.8806 22.144 20.3704L23.9176 22.144C24.4074 22.6337 24.4074 23.4278 23.9176 23.9176C23.4278 24.4074 22.6338 24.4074 22.144 23.9176L20.3704 22.144C19.8806 21.6542 19.8806 20.8601 20.3704 20.3704ZM15.0496 22.5743C15.7422 22.5743 16.3037 23.1358 16.3037 23.8285V26.3367C16.3037 27.0294 15.7422 27.5908 15.0496 27.5908C14.3569 27.5908 13.7954 27.0294 13.7954 26.3367V23.8285C13.7954 23.1358 14.3569 22.5743 15.0496 22.5743Z" fill="black"/>
</svg>
