<svg width="26" height="26" viewBox="0 0 26 26" fill="none" xmlns="http://www.w3.org/2000/svg">
<path fill-rule="evenodd" clip-rule="evenodd" d="M10.5413 3.03513C9.84864 3.03513 9.28715 3.5987 9.28715 4.2939C9.28715 4.98911 9.84864 5.55268 10.5413 5.55268C11.2339 5.55268 11.7954 4.98911 11.7954 4.2939C11.7954 3.5987 11.2339 3.03513 10.5413 3.03513ZM13.0495 1.47915C12.3839 0.881181 11.5049 0.517578 10.5413 0.517578C8.46337 0.517578 6.77889 2.2083 6.77889 4.2939C6.77889 4.73527 6.85433 5.15896 6.99298 5.55268H4.27063C2.19272 5.55268 0.50824 7.2434 0.50824 9.329C0.50824 10.9732 1.5552 12.372 3.0165 12.8904V19.3992C3.0165 22.8752 5.82397 25.6931 9.28715 25.6931H16.8119C20.2751 25.6931 23.0826 22.8752 23.0826 19.3992V12.8904C24.5439 12.372 25.5908 10.9732 25.5908 9.329C25.5908 7.2434 23.9064 5.55268 21.8285 5.55268H19.1061C19.2448 5.15896 19.3202 4.73527 19.3202 4.2939C19.3202 2.2083 17.6357 0.517578 15.5578 0.517578C14.5942 0.517578 13.7152 0.881181 13.0495 1.47915ZM15.5578 5.55268C16.2504 5.55268 16.8119 4.98911 16.8119 4.2939C16.8119 3.5987 16.2504 3.03513 15.5578 3.03513C14.8652 3.03513 14.3037 3.5987 14.3037 4.2939C14.3037 4.98911 14.8652 5.55268 15.5578 5.55268ZM4.27063 8.07023C3.57799 8.07023 3.0165 8.6338 3.0165 9.329C3.0165 10.0242 3.57799 10.5878 4.27063 10.5878H21.8285C22.5211 10.5878 23.0826 10.0242 23.0826 9.329C23.0826 8.6338 22.5211 8.07023 21.8285 8.07023H4.27063ZM20.5743 13.1053H14.3037V23.1755H16.8119C18.8898 23.1755 20.5743 21.4848 20.5743 19.3992V13.1053ZM11.7954 23.1755V13.1053H5.52476V19.3992C5.52476 21.4848 7.20924 23.1755 9.28715 23.1755H11.7954Z" fill="black"/>
</svg>
