<svg width="31" height="31" viewBox="0 0 31 31" fill="none" xmlns="http://www.w3.org/2000/svg">
<path fill-rule="evenodd" clip-rule="evenodd" d="M14.1627 2.87557C14.6525 2.3858 15.4466 2.3858 15.9363 2.87557L18.8119 5.75115V5.0165C18.8119 4.32386 19.3734 3.76237 20.0661 3.76237H23.8285C24.5211 3.76237 25.0826 4.32386 25.0826 5.0165V12.0218L27.2235 14.1627C27.7133 14.6525 27.7133 15.4466 27.2235 15.9363C26.7337 16.4261 25.9397 16.4261 25.4499 15.9363L25.0826 15.569V23.8285C25.0826 25.9064 23.3981 27.5908 21.3202 27.5908H8.77889C6.70098 27.5908 5.0165 25.9064 5.0165 23.8285V15.569L4.64917 15.9363C4.15941 16.4261 3.36533 16.4261 2.87557 15.9363C2.3858 15.4466 2.3858 14.6525 2.87557 14.1627L5.38338 11.6549C5.38368 11.6546 5.38398 11.6543 5.38427 11.654L14.1627 2.87557ZM7.52476 13.0608V23.8285C7.52476 24.5211 8.08625 25.0826 8.77889 25.0826H21.3202C22.0128 25.0826 22.5743 24.5211 22.5743 23.8285V13.0608L19.1794 9.66586C19.1793 9.66575 19.1792 9.66564 19.1791 9.66553L15.0495 5.53598L7.52476 13.0608ZM21.3202 8.25941L22.5743 9.51354V6.27063H21.3202V8.25941Z" fill="black"/>
</svg>
