<svg width="26" height="26" viewBox="0 0 26 26" fill="none" xmlns="http://www.w3.org/2000/svg">
<path fill-rule="evenodd" clip-rule="evenodd" d="M5.36517 4.73939C6.77423 2.29932 9.40598 0.654663 12.4225 0.654663C15.8274 0.654663 18.7423 2.749 19.9627 5.72239C23.1241 6.0453 25.5909 8.72532 25.5909 11.9836C25.5909 12.0134 25.5909 12.044 25.591 12.0753C25.5917 12.6397 25.5928 13.4511 25.3692 14.1211C25.2388 14.5119 25.0046 14.9512 24.5727 15.2849C24.4604 15.3716 24.3429 15.445 24.2214 15.5062L23.6222 20.3169C23.23 23.4666 20.5625 25.8302 17.4 25.8302H8.69919C5.53675 25.8302 2.86921 23.4666 2.47696 20.3169L1.81541 15.005C1.05319 14.0053 0.508301 12.9507 0.508301 11.3543C0.508301 8.24277 2.55221 5.61299 5.36517 4.73939ZM4.43722 15.76L4.96585 20.0047C5.2012 21.8945 6.80173 23.3126 8.69919 23.3126H8.86917V15.76H4.43722ZM11.3774 15.76V23.3126H14.7218V15.76H11.3774ZM3.6361 13.2424C3.20185 12.6254 3.01656 12.1188 3.01656 11.3543C3.01656 9.2418 4.49905 7.47397 6.47771 7.04698L7.07526 6.91804L7.34225 6.36619C8.2582 4.47297 10.1902 3.17221 12.4225 3.17221C15.0059 3.17221 17.1869 4.91554 17.8553 7.29646L18.1267 8.263L19.1258 8.21224C19.1901 8.20897 19.255 8.20731 19.3203 8.20731C21.3982 8.20731 23.0826 9.89803 23.0826 11.9836C23.0826 12.312 23.0821 12.5857 23.0658 12.8322C23.0535 13.0189 23.0339 13.1511 23.0127 13.2424H3.6361ZM17.23 15.76V23.3126H17.4C19.2975 23.3126 20.898 21.8945 21.1334 20.0047L21.662 15.76H17.23Z" fill="black"/>
</svg>
