<svg width="31" height="31" viewBox="0 0 31 31" fill="none" xmlns="http://www.w3.org/2000/svg">
<path fill-rule="evenodd" clip-rule="evenodd" d="M12.5413 5.0351C11.8486 5.0351 11.2872 5.59867 11.2872 6.29387C11.2872 6.98907 11.8486 7.55265 12.5413 7.55265C13.2339 7.55265 13.7954 6.98907 13.7954 6.29387C13.7954 5.59867 13.2339 5.0351 12.5413 5.0351ZM15.0495 3.47912C14.3839 2.88115 13.5049 2.51755 12.5413 2.51755C10.4634 2.51755 8.77889 4.20827 8.77889 6.29387C8.77889 6.73524 8.85433 7.15893 8.99298 7.55265H6.27063C4.19272 7.55265 2.50824 9.24337 2.50824 11.329C2.50824 12.9732 3.5552 14.372 5.0165 14.8904V21.3992C5.0165 24.8752 7.82397 27.693 11.2872 27.693H18.8119C22.2751 27.693 25.0826 24.8752 25.0826 21.3992V14.8904C26.5439 14.372 27.5908 12.9732 27.5908 11.329C27.5908 9.24337 25.9064 7.55265 23.8285 7.55265H21.1061C21.2448 7.15893 21.3202 6.73524 21.3202 6.29387C21.3202 4.20827 19.6357 2.51755 17.5578 2.51755C16.5942 2.51755 15.7152 2.88115 15.0495 3.47912ZM17.5578 7.55265C18.2504 7.55265 18.8119 6.98907 18.8119 6.29387C18.8119 5.59867 18.2504 5.0351 17.5578 5.0351C16.8652 5.0351 16.3037 5.59867 16.3037 6.29387C16.3037 6.98907 16.8652 7.55265 17.5578 7.55265ZM6.27063 10.0702C5.57799 10.0702 5.0165 10.6338 5.0165 11.329C5.0165 12.0242 5.57799 12.5877 6.27063 12.5877H23.8285C24.5211 12.5877 25.0826 12.0242 25.0826 11.329C25.0826 10.6338 24.5211 10.0702 23.8285 10.0702H6.27063ZM22.5743 15.1053H16.3037V25.1755H18.8119C20.8898 25.1755 22.5743 23.4848 22.5743 21.3992V15.1053ZM13.7954 25.1755V15.1053H7.52476V21.3992C7.52476 23.4848 9.20924 25.1755 11.2872 25.1755H13.7954Z" fill="black"/>
</svg>
