<svg width="31" height="31" viewBox="0 0 31 31" fill="none" xmlns="http://www.w3.org/2000/svg">
<path fill-rule="evenodd" clip-rule="evenodd" d="M14.1628 2.87559C14.6526 2.38582 15.4466 2.38582 15.9364 2.87559L18.812 5.75118V5.01652C18.812 4.32389 19.3735 3.76239 20.0661 3.76239H23.8285C24.5212 3.76239 25.0826 4.32389 25.0826 5.01652V12.0218L27.2236 14.1628C27.7133 14.6525 27.7133 15.4466 27.2236 15.9364C26.7338 16.4261 25.9397 16.4261 25.45 15.9364L25.0826 15.569V23.8285C25.0826 25.9064 23.3982 27.5909 21.3203 27.5909H8.77895C6.70104 27.5909 5.01656 25.9064 5.01656 23.8285V15.569L4.64924 15.9364C4.15947 16.4261 3.3654 16.4261 2.87563 15.9364C2.38586 15.4466 2.38586 14.6525 2.87563 14.1628L5.38344 11.6549C5.38374 11.6546 5.38404 11.6544 5.38434 11.6541L14.1628 2.87559ZM7.52482 13.0608V23.8285C7.52482 24.5211 8.08632 25.0826 8.77895 25.0826H21.3203C22.0129 25.0826 22.5744 24.5211 22.5744 23.8285V13.0608L19.1795 9.66588C19.1794 9.66577 19.1793 9.66566 19.1792 9.66555L15.0496 5.536L7.52482 13.0608ZM21.3203 8.25944L22.5744 9.51357V6.27065H21.3203V8.25944Z" fill="black"/>
</svg>
