<svg width="36" height="32" viewBox="0 0 36 32" fill="none" xmlns="http://www.w3.org/2000/svg">
<g filter="url(#filter0_d_157_2497)">
<path fill-rule="evenodd" clip-rule="evenodd" d="M4.25415 12.5413C4.25415 9.07813 7.06162 6.27066 10.5248 6.27066H19.3037C22.7333 6.27066 25.5199 9.02399 25.5736 12.4408L29.8074 9.05374C30.1839 8.75258 30.6996 8.69386 31.1342 8.9027C31.5687 9.11154 31.845 9.55096 31.845 10.0331V20.0661C31.845 20.5482 31.5687 20.9876 31.1342 21.1964C30.6996 21.4053 30.1839 21.3466 29.8074 21.0454L25.5736 17.6583C25.5199 21.0752 22.7333 23.8285 19.3037 23.8285H10.5248C7.06162 23.8285 4.25415 21.021 4.25415 17.5578V12.5413ZM23.0661 12.5413C23.0661 10.4634 21.3816 8.77892 19.3037 8.77892H10.5248C8.44689 8.77892 6.76241 10.4634 6.76241 12.5413V17.5578C6.76241 19.6357 8.44689 21.3202 10.5248 21.3202H19.3037C21.3816 21.3202 23.0661 19.6357 23.0661 17.5578V12.5413ZM26.3278 15.0496L29.3368 17.4567V12.6424L26.3278 15.0496Z" fill="black"/>
</g>
<defs>
<filter id="filter0_d_157_2497" x="-1" y="0" width="38.0991" height="38.0991" filterUnits="userSpaceOnUse" color-interpolation-filters="sRGB">
<feFlood flood-opacity="0" result="BackgroundImageFix"/>
<feColorMatrix in="SourceAlpha" type="matrix" values="0 0 0 0 0 0 0 0 0 0 0 0 0 0 0 0 0 0 127 0" result="hardAlpha"/>
<feOffset dy="4"/>
<feGaussianBlur stdDeviation="2"/>
<feComposite in2="hardAlpha" operator="out"/>
<feColorMatrix type="matrix" values="0 0 0 0 0 0 0 0 0 0 0 0 0 0 0 0 0 0 0.25 0"/>
<feBlend mode="normal" in2="BackgroundImageFix" result="effect1_dropShadow_157_2497"/>
<feBlend mode="normal" in="SourceGraphic" in2="effect1_dropShadow_157_2497" result="shape"/>
</filter>
</defs>
</svg>
