<svg width="33" height="31" viewBox="0 0 33 31" fill="none" xmlns="http://www.w3.org/2000/svg">
<path d="M21.08 19.4234C19.8822 20.5321 18.258 21.1549 16.5643 21.1549C14.8707 21.1549 13.2464 20.5321 12.0486 19.4234M11.774 12.2851H11.79M21.3547 12.2851H21.3706M30.9353 15.2422C30.9353 16.9896 30.5636 18.7199 29.8414 20.3344C29.1192 21.9488 28.0606 23.4157 26.7261 24.6513C25.3917 25.887 23.8074 26.8671 22.0639 27.5359C20.3203 28.2046 18.4515 28.5488 16.5643 28.5488C14.6771 28.5488 12.8084 28.2046 11.0648 27.5359C9.32123 26.8671 7.73699 25.887 6.40252 24.6513C5.06805 23.4157 4.00949 21.9488 3.28728 20.3344C2.56508 18.7199 2.19336 16.9896 2.19336 15.2422C2.19336 11.713 3.70744 8.32843 6.40252 5.83296C9.0976 3.33749 12.7529 1.93555 16.5643 1.93555C20.3757 1.93555 24.0311 3.33749 26.7261 5.83296C29.4212 8.32843 30.9353 11.713 30.9353 15.2422Z" stroke="#C66464" stroke-width="3" stroke-linecap="round" stroke-linejoin="round"/>
</svg>
