<svg width="31" height="31" viewBox="0 0 31 31" fill="none" xmlns="http://www.w3.org/2000/svg">
<path fill-rule="evenodd" clip-rule="evenodd" d="M15.0495 2.50826C15.7422 2.50826 16.3037 3.06976 16.3037 3.76239V6.27065C16.3037 6.96329 15.7422 7.52478 15.0495 7.52478C14.3569 7.52478 13.7954 6.96329 13.7954 6.27065V3.76239C13.7954 3.06976 14.3569 2.50826 15.0495 2.50826ZM23.9176 6.18152C24.4074 6.67129 24.4074 7.46536 23.9176 7.95513L22.144 9.72874C21.6542 10.2185 20.8601 10.2185 20.3704 9.72874C19.8806 9.23897 19.8806 8.4449 20.3704 7.95513L22.144 6.18153C22.6337 5.69176 23.4278 5.69176 23.9176 6.18152ZM6.1815 6.18153C6.67127 5.69176 7.46534 5.69176 7.95511 6.18153L9.72872 7.95513C10.2185 8.4449 10.2185 9.23897 9.72872 9.72874C9.23895 10.2185 8.44488 10.2185 7.95511 9.72874L6.1815 7.95513C5.69173 7.46537 5.69173 6.67129 6.1815 6.18153ZM15.0495 11.9142C13.3179 11.9142 11.9142 13.318 11.9142 15.0496C11.9142 16.7812 13.3179 18.1849 15.0495 18.1849C16.7811 18.1849 18.1849 16.7812 18.1849 15.0496C18.1849 13.318 16.7811 11.9142 15.0495 11.9142ZM9.40596 15.0496C9.40596 11.9327 11.9327 9.40598 15.0495 9.40598C18.1664 9.40598 20.6931 11.9327 20.6931 15.0496C20.6931 18.1664 18.1664 20.6932 15.0495 20.6932C11.9327 20.6932 9.40596 18.1664 9.40596 15.0496ZM2.50824 15.0496C2.50824 14.3569 3.06973 13.7954 3.76237 13.7954H6.27063C6.96327 13.7954 7.52476 14.3569 7.52476 15.0496C7.52476 15.7422 6.96327 16.3037 6.27063 16.3037H3.76237C3.06973 16.3037 2.50824 15.7422 2.50824 15.0496ZM22.5743 15.0496C22.5743 14.3569 23.1358 13.7954 23.8285 13.7954H26.3367C27.0294 13.7954 27.5908 14.3569 27.5908 15.0496C27.5908 15.7422 27.0294 16.3037 26.3367 16.3037H23.8285C23.1358 16.3037 22.5743 15.7422 22.5743 15.0496ZM9.72872 20.3704C10.2185 20.8602 10.2185 21.6542 9.72872 22.144L7.95511 23.9176C7.46534 24.4074 6.67127 24.4074 6.1815 23.9176C5.69173 23.4278 5.69173 22.6338 6.1815 22.144L7.95511 20.3704C8.44488 19.8806 9.23895 19.8806 9.72872 20.3704ZM20.3704 20.3704C20.8601 19.8806 21.6542 19.8806 22.144 20.3704L23.9176 22.144C24.4074 22.6338 24.4074 23.4278 23.9176 23.9176C23.4278 24.4074 22.6337 24.4074 22.144 23.9176L20.3704 22.144C19.8806 21.6542 19.8806 20.8602 20.3704 20.3704ZM15.0495 22.5743C15.7422 22.5743 16.3037 23.1358 16.3037 23.8285V26.3367C16.3037 27.0294 15.7422 27.5909 15.0495 27.5909C14.3569 27.5909 13.7954 27.0294 13.7954 26.3367V23.8285C13.7954 23.1358 14.3569 22.5743 15.0495 22.5743Z" fill="black"/>
</svg>
