<svg width="31" height="31" viewBox="0 0 31 31" fill="none" xmlns="http://www.w3.org/2000/svg">
<path fill-rule="evenodd" clip-rule="evenodd" d="M7.36517 6.7393C8.77423 4.29923 11.406 2.65457 14.4225 2.65457C17.8274 2.65457 20.7423 4.74891 21.9627 7.7223C25.1241 8.04521 27.5909 10.7252 27.5909 13.9835C27.5909 14.0133 27.5909 14.0439 27.591 14.0753C27.5917 14.6396 27.5928 15.4511 27.3692 16.121C27.2388 16.5118 27.0046 16.9511 26.5727 17.2848C26.4604 17.3715 26.3429 17.4449 26.2214 17.5061L25.6222 22.3169C25.23 25.4665 22.5625 27.8301 19.4 27.8301H10.6992C7.53675 27.8301 4.86921 25.4665 4.47696 22.3169L3.81541 17.0049C3.05319 16.0052 2.5083 14.9506 2.5083 13.3542C2.5083 10.2427 4.55221 7.6129 7.36517 6.7393ZM6.43722 17.7599L6.96585 22.0046C7.2012 23.8944 8.80173 25.3125 10.6992 25.3125H10.8692V17.7599H6.43722ZM13.3774 17.7599V25.3125H16.7218V17.7599H13.3774ZM5.6361 15.2423C5.20185 14.6253 5.01656 14.1188 5.01656 13.3542C5.01656 11.2417 6.49905 9.47388 8.47771 9.04689L9.07526 8.91794L9.34225 8.3661C10.2582 6.47288 12.1902 5.17212 14.4225 5.17212C17.0059 5.17212 19.1869 6.91544 19.8553 9.29637L20.1267 10.2629L21.1258 10.2121C21.1901 10.2089 21.255 10.2072 21.3203 10.2072C23.3982 10.2072 25.0826 11.8979 25.0826 13.9835C25.0826 14.3119 25.0821 14.5856 25.0658 14.8321C25.0535 15.0188 25.0339 15.151 25.0127 15.2423H5.6361ZM19.23 17.7599V25.3125H19.4C21.2975 25.3125 22.898 23.8944 23.1334 22.0046L23.662 17.7599H19.23Z" fill="black"/>
</svg>
