<svg width="31" height="31" viewBox="0 0 31 31" fill="none" xmlns="http://www.w3.org/2000/svg">
<path fill-rule="evenodd" clip-rule="evenodd" d="M8.77889 6.27065C8.77889 4.19274 10.4634 2.50826 12.5413 2.50826H17.5578C19.6357 2.50826 21.3202 4.19274 21.3202 6.27065V8.77891H23.8285C25.9064 8.77891 27.5908 10.4634 27.5908 12.5413V17.5578C27.5908 19.6357 25.9064 21.3202 23.8285 21.3202H21.3202V23.8285C21.3202 25.9064 19.6357 27.5909 17.5578 27.5909H12.5413C10.4634 27.5909 8.77889 25.9064 8.77889 23.8285V21.3202H6.27063C4.19272 21.3202 2.50824 19.6357 2.50824 17.5578L2.50824 12.5413C2.50824 10.4634 4.19272 8.77891 6.27063 8.77891H8.77889V6.27065ZM12.5413 5.01652C11.8486 5.01652 11.2872 5.57802 11.2872 6.27065V10.033C11.2872 10.7257 10.7257 11.2872 10.033 11.2872H6.27063C5.57799 11.2872 5.0165 11.8487 5.0165 12.5413L5.0165 17.5578C5.0165 18.2505 5.57799 18.812 6.27063 18.812H10.033C10.7257 18.812 11.2872 19.3734 11.2872 20.0661V23.8285C11.2872 24.5211 11.8486 25.0826 12.5413 25.0826H17.5578C18.2504 25.0826 18.8119 24.5211 18.8119 23.8285V20.0661C18.8119 19.3734 19.3734 18.812 20.0661 18.812H23.8285C24.5211 18.812 25.0826 18.2505 25.0826 17.5578V12.5413C25.0826 11.8487 24.5211 11.2872 23.8285 11.2872H20.0661C19.3734 11.2872 18.8119 10.7257 18.8119 10.033V6.27065C18.8119 5.57802 18.2504 5.01652 17.5578 5.01652H12.5413Z" fill="black"/>
</svg>
