<svg width="96" height="72" viewBox="0 0 96 72" fill="none" xmlns="http://www.w3.org/2000/svg">
<g clip-path="url(#clip0_658_672)">
<g clip-path="url(#clip1_658_672)">
<path d="M53 4L63 12L53 20V4Z" fill="#FF7C44" stroke="#FF7C44" stroke-width="2" stroke-linecap="round" stroke-linejoin="round"/>
<path d="M67 5V14.5V19" stroke="#FF7C44" stroke-width="2" stroke-linecap="round" stroke-linejoin="round"/>
</g>
</g>
<path d="M56 29V43" stroke="#FF7C44" stroke-width="4" stroke-linecap="round" stroke-linejoin="round"/>
<path d="M65 29V43" stroke="#FF7C44" stroke-width="4" stroke-linecap="round" stroke-linejoin="round"/>
<path d="M30 28L46 36L30 44V28Z" stroke="white" stroke-width="3" stroke-linecap="round" stroke-linejoin="round"/>
<g clip-path="url(#clip2_658_672)">
<path d="M16.2222 1.61133L19.9999 5.38911L16.2222 9.16688" stroke="#FFA781" stroke-width="2" stroke-linecap="round" stroke-linejoin="round"/>
<path d="M3 11.0553V9.16645C3 8.16452 3.39801 7.20363 4.10649 6.49516C4.81496 5.78669 5.77585 5.38867 6.77778 5.38867H20" stroke="#FFA781" stroke-width="2" stroke-linecap="round" stroke-linejoin="round"/>
<path d="M6.77778 22.3891L3 18.6113L6.77778 14.8335" stroke="#FFA781" stroke-width="2" stroke-linecap="round" stroke-linejoin="round"/>
<path d="M20 12.9443V14.8332C20 15.8352 19.602 16.796 18.8935 17.5045C18.185 18.213 17.2242 18.611 16.2222 18.611H3" stroke="#FFA781" stroke-width="2" stroke-linecap="round" stroke-linejoin="round"/>
</g>
<g clip-path="url(#clip3_658_672)">
<path d="M18 68L21 65L18 62" stroke="#FFA781" stroke-width="2" stroke-linecap="round" stroke-linejoin="round"/>
<path d="M18 52L21 55L18 58" stroke="#FFA781" stroke-width="2" stroke-linecap="round" stroke-linejoin="round"/>
<path d="M21 55H17C15.8744 55 14.8357 55.3719 14 55.9996M3 65H7C8.12561 65 9.16434 64.6281 10 64.0004" stroke="#FFA781" stroke-width="2" stroke-linecap="round" stroke-linejoin="round"/>
<path d="M3 55H7C9.76142 55 12 57.2386 12 60C12 62.7614 14.2386 65 17 65H21" stroke="#FFA781" stroke-width="2" stroke-linecap="round" stroke-linejoin="round"/>
</g>
<g clip-path="url(#clip4_658_672)">
<path d="M16.2222 25.6113L19.9999 29.3891L16.2222 33.1669" stroke="#FFA781" stroke-width="2" stroke-linecap="round" stroke-linejoin="round"/>
<path d="M3 35.0553V33.1664C3 32.1645 3.39801 31.2036 4.10649 30.4952C4.81496 29.7867 5.77585 29.3887 6.77778 29.3887H20" stroke="#FFA781" stroke-width="2" stroke-linecap="round" stroke-linejoin="round"/>
<path d="M6.77778 46.3891L3 42.6113L6.77778 38.8335" stroke="#FFA781" stroke-width="2" stroke-linecap="round" stroke-linejoin="round"/>
<path d="M20 36.9443V38.8332C20 39.8352 19.602 40.796 18.8935 41.5045C18.185 42.213 17.2242 42.611 16.2222 42.611H3" stroke="#FFA781" stroke-width="2" stroke-linecap="round" stroke-linejoin="round"/>
<path d="M11.496 31.336C11.552 31.32 11.604 31.308 11.652 31.3C11.7 31.284 11.748 31.272 11.796 31.264C11.852 31.248 11.92 31.24 12 31.24C12.088 31.232 12.168 31.236 12.24 31.252C12.32 31.26 12.392 31.284 12.456 31.324C12.528 31.356 12.58 31.408 12.612 31.48C12.644 31.56 12.664 31.656 12.672 31.768C12.688 31.872 12.696 31.98 12.696 32.092C12.696 32.204 12.692 32.316 12.684 32.428C12.684 32.532 12.684 32.628 12.684 32.716V38.848C12.684 38.936 12.684 39.028 12.684 39.124C12.692 39.212 12.692 39.304 12.684 39.4C12.676 39.496 12.652 39.588 12.612 39.676C12.572 39.756 12.512 39.824 12.432 39.88C12.32 39.968 12.168 40.012 11.976 40.012C11.792 40.02 11.632 40 11.496 39.952C11.352 39.904 11.264 39.812 11.232 39.676C11.208 39.54 11.196 39.404 11.196 39.268C11.14 38.212 11.112 37.18 11.112 36.172C11.12 35.156 11.124 34.112 11.124 33.04C11.108 33.08 11.052 33.116 10.956 33.148C10.868 33.18 10.764 33.208 10.644 33.232C10.532 33.256 10.424 33.276 10.32 33.292C10.216 33.308 10.148 33.316 10.116 33.316C9.908 33.34 9.716 33.32 9.54 33.256C9.372 33.184 9.276 33.024 9.252 32.776C9.22 32.52 9.276 32.32 9.42 32.176C9.572 32.032 9.764 31.924 9.996 31.852C10.252 31.764 10.5 31.676 10.74 31.588C10.988 31.492 11.24 31.408 11.496 31.336Z" fill="#FFA781"/>
</g>
<g clip-path="url(#clip5_658_672)">
<path d="M43 20L33 12L43 4L43 20Z" fill="#FF7C44" stroke="#FF7C44" stroke-width="2" stroke-linecap="round" stroke-linejoin="round"/>
<path d="M29 19L29 5" stroke="#FF7C44" stroke-width="2" stroke-linecap="round" stroke-linejoin="round"/>
</g>
<path d="M77 12.333H91.0918" stroke="#FFA781" stroke-width="1.77778" stroke-linecap="round" stroke-linejoin="round"/>
<path d="M77 7H91.0918" stroke="#FFA781" stroke-width="1.77778" stroke-linecap="round" stroke-linejoin="round"/>
<path d="M77 17.666H91.0918" stroke="#FFA781" stroke-width="1.77778" stroke-linecap="round" stroke-linejoin="round"/>
<path d="M79 30L86.4643 38.1429L90 42" stroke="#FF7C44" stroke-width="2" stroke-linecap="round" stroke-linejoin="round"/>
<path d="M89 30L82.2142 37.8759L78.9998 41.6066" stroke="#FF7C44" stroke-width="2" stroke-linecap="round" stroke-linejoin="round"/>
<defs>
<clipPath id="clip0_658_672">
<rect width="24" height="24" fill="white" transform="translate(48)"/>
</clipPath>
<clipPath id="clip1_658_672">
<rect width="24" height="24" fill="white" transform="translate(48)"/>
</clipPath>
<clipPath id="clip2_658_672">
<rect width="24" height="24" fill="white"/>
</clipPath>
<clipPath id="clip3_658_672">
<rect width="24" height="24" fill="white" transform="translate(1 48)"/>
</clipPath>
<clipPath id="clip4_658_672">
<rect width="24" height="24" fill="white" transform="translate(0 24)"/>
</clipPath>
<clipPath id="clip5_658_672">
<rect width="24" height="24" fill="white" transform="translate(24)"/>
</clipPath>
</defs>
</svg>
