<svg width="72" height="72" viewBox="0 0 72 72" fill="none" xmlns="http://www.w3.org/2000/svg">
<g clip-path="url(#clip0_26_1168)">
<g clip-path="url(#clip1_26_1168)">
<g clip-path="url(#clip2_26_1168)">
<path d="M5 28L15 36L5 44V28Z" fill="#FFF981" stroke="#FFF981" stroke-width="2" stroke-linecap="round" stroke-linejoin="round"/>
<path d="M19 29V43" stroke="#FFF981" stroke-width="2" stroke-linecap="round" stroke-linejoin="round"/>
</g>
</g>
<g clip-path="url(#clip3_26_1168)">
<path d="M16.2222 49.6113L19.9999 53.3891L16.2222 57.1669" stroke="#FFA781" stroke-width="2" stroke-linecap="round" stroke-linejoin="round"/>
<path d="M3 59.0553V57.1664C3 56.1645 3.39801 55.2036 4.10649 54.4952C4.81496 53.7867 5.77585 53.3887 6.77778 53.3887H20" stroke="#FFA781" stroke-width="2" stroke-linecap="round" stroke-linejoin="round"/>
<path d="M6.77778 70.3895L3 66.6118L6.77778 62.834" stroke="#FFA781" stroke-width="2" stroke-linecap="round" stroke-linejoin="round"/>
<path d="M20 60.9443V62.8332C20 63.8352 19.602 64.796 18.8935 65.5045C18.185 66.213 17.2242 66.611 16.2222 66.611H3" stroke="#FFA781" stroke-width="2" stroke-linecap="round" stroke-linejoin="round"/>
</g>
<g clip-path="url(#clip4_26_1168)">
<path d="M4 12H20" stroke="#FFA781" stroke-width="1.77778" stroke-linecap="round" stroke-linejoin="round"/>
<path d="M4 6.66699H20" stroke="#FFA781" stroke-width="1.77778" stroke-linecap="round" stroke-linejoin="round"/>
<path d="M4 17.333H20" stroke="#FFA781" stroke-width="1.77778" stroke-linecap="round" stroke-linejoin="round"/>
</g>
<g clip-path="url(#clip5_26_1168)">
<path d="M41 20L44 17L41 14" stroke="#FFA781" stroke-width="2" stroke-linecap="round" stroke-linejoin="round"/>
<path d="M41 4L44 7L41 10" stroke="#FFA781" stroke-width="2" stroke-linecap="round" stroke-linejoin="round"/>
<path d="M44 7H40C38.8744 7 37.8357 7.37194 37 7.99963M26 17H30C31.1256 17 32.1643 16.6281 33 16.0004" stroke="#FFA781" stroke-width="2" stroke-linecap="round" stroke-linejoin="round"/>
<path d="M26 7H30C32.7614 7 35 9.23858 35 12C35 14.7614 37.2386 17 40 17H44" stroke="#FFA781" stroke-width="2" stroke-linecap="round" stroke-linejoin="round"/>
</g>
<g clip-path="url(#clip6_26_1168)">
<path d="M64.2222 49.6113L67.9999 53.3891L64.2222 57.1669" stroke="#FFA781" stroke-width="2" stroke-linecap="round" stroke-linejoin="round"/>
<path d="M51 59.0553V57.1664C51 56.1645 51.398 55.2036 52.1065 54.4952C52.815 53.7867 53.7758 53.3887 54.7778 53.3887H68" stroke="#FFA781" stroke-width="2" stroke-linecap="round" stroke-linejoin="round"/>
<path d="M54.7778 70.3895L51 66.6118L54.7778 62.834" stroke="#FFA781" stroke-width="2" stroke-linecap="round" stroke-linejoin="round"/>
<path d="M68 60.9443V62.8332C68 63.8352 67.602 64.796 66.8935 65.5045C66.185 66.213 65.2242 66.611 64.2222 66.611H51" stroke="#FFA781" stroke-width="2" stroke-linecap="round" stroke-linejoin="round"/>
<path d="M59.496 55.336C59.552 55.32 59.604 55.308 59.652 55.3C59.7 55.284 59.748 55.272 59.796 55.264C59.852 55.248 59.92 55.24 60 55.24C60.088 55.232 60.168 55.236 60.24 55.252C60.32 55.26 60.392 55.284 60.456 55.324C60.528 55.356 60.58 55.408 60.612 55.48C60.644 55.56 60.664 55.656 60.672 55.768C60.688 55.872 60.696 55.98 60.696 56.092C60.696 56.204 60.692 56.316 60.684 56.428C60.684 56.532 60.684 56.628 60.684 56.716V62.848C60.684 62.936 60.684 63.028 60.684 63.124C60.692 63.212 60.692 63.304 60.684 63.4C60.676 63.496 60.652 63.588 60.612 63.676C60.572 63.756 60.512 63.824 60.432 63.88C60.32 63.968 60.168 64.012 59.976 64.012C59.792 64.02 59.632 64 59.496 63.952C59.352 63.904 59.264 63.812 59.232 63.676C59.208 63.54 59.196 63.404 59.196 63.268C59.14 62.212 59.112 61.18 59.112 60.172C59.12 59.156 59.124 58.112 59.124 57.04C59.108 57.08 59.052 57.116 58.956 57.148C58.868 57.18 58.764 57.208 58.644 57.232C58.532 57.256 58.424 57.276 58.32 57.292C58.216 57.308 58.148 57.316 58.116 57.316C57.908 57.34 57.716 57.32 57.54 57.256C57.372 57.184 57.276 57.024 57.252 56.776C57.22 56.52 57.276 56.32 57.42 56.176C57.572 56.032 57.764 55.924 57.996 55.852C58.252 55.764 58.5 55.676 58.74 55.588C58.988 55.492 59.24 55.408 59.496 55.336Z" fill="#FFA781"/>
</g>
<g clip-path="url(#clip7_26_1168)">
<path d="M67 44L57 36L67 28L67 44Z" fill="#FFF981" stroke="#FFF981" stroke-width="2" stroke-linecap="round" stroke-linejoin="round"/>
<path d="M53 43L53 29" stroke="#FFF981" stroke-width="2" stroke-linecap="round" stroke-linejoin="round"/>
</g>
</g>
<defs>
<clipPath id="clip0_26_1168">
<rect width="72" height="72" fill="white"/>
</clipPath>
<clipPath id="clip1_26_1168">
<rect width="24" height="24" fill="white" transform="translate(0 24)"/>
</clipPath>
<clipPath id="clip2_26_1168">
<rect width="24" height="24" fill="white" transform="translate(0 24)"/>
</clipPath>
<clipPath id="clip3_26_1168">
<rect width="24" height="24" fill="white" transform="translate(0 48)"/>
</clipPath>
<clipPath id="clip4_26_1168">
<rect width="24" height="24" fill="white"/>
</clipPath>
<clipPath id="clip5_26_1168">
<rect width="24" height="24" fill="white" transform="translate(24)"/>
</clipPath>
<clipPath id="clip6_26_1168">
<rect width="24" height="24" fill="white" transform="translate(48 48)"/>
</clipPath>
<clipPath id="clip7_26_1168">
<rect width="24" height="24" fill="white" transform="translate(48 24)"/>
</clipPath>
</defs>
</svg>
